<?xml version="1.0" encoding="utf-8"?>
<!-- Generator: Adobe Illustrator 16.0.4, SVG Export Plug-In . SVG Version: 6.00 Build 0)  -->
<!DOCTYPE svg PUBLIC "-//W3C//DTD SVG 1.1//EN" "http://www.w3.org/Graphics/SVG/1.1/DTD/svg11.dtd">
<svg version="1.1" id="Layer_1" xmlns="http://www.w3.org/2000/svg" xmlns:xlink="http://www.w3.org/1999/xlink" x="0px" y="0px"
	 width="612px" height="792px" viewBox="0 0 612 792" enable-background="new 0 0 612 792" xml:space="preserve">
<path d="M160.458,287.802c0-1.057,2.758-15.354,2.125-26.876c-0.644-11.524-2.125-22.189-4.476-31.367
	c-11.471-44.845-49.502-85.619-99.47-79.785c-21.047,2.461-41.312,16.312-54.146,32.83C2.241,185.493,0,188.601,0,188.601
	s5.124-8.77,10.354-14.551c10.785-11.903,26.075-23.629,42.292-26.2c46.403-7.331,85.241,20.745,100.5,63.631l4.318,12.104
	c0,0,2.773,10.041,2.994,13.021c0.201,2.979,0.408-4.903-0.863-9.601c-8.373-30.699-24.81-56.723-48.582-77.654
	c-13.523-11.903-30.768-22.007-48.639-25.773c-4.059-0.85-6.621-1.387-6.621-1.387s7.043-0.537,11.538,0.739
	c45.231,12.939,83.802,53.091,92.302,99.806c0.422,2.346,2.773,10.243,2.773,10.243s-1.909-13.222-5.325-22.396
	c-12.724-34.188-30.519-67.114-41.601-101.758c-8.367-26.152-11.409-57.85-9.601-85.12c0.427-6.395,2.773-18.769,2.773-18.769
	s-1.075,14.72-0.849,33.713c0.207,18.984,3.4,38.602,5.123,47.574c1.698,8.947,5.959,25.375,7.877,29.855
	c1.924,4.486,14.945,37.332,16.648,40.536c1.699,3.2,14.719,33.699,15.775,36.05c1.074,2.347,7.47,22.396,7.47,22.396l2.13,7.901
	c0,0,1.723,2.547,1.924,10.666c0.221,8.104,1.281,17.482,0.85,26.229c-0.428,8.746-1.924,17.718-2.125,19.849
	c-0.222,2.125-1.498,6.18-1.498,6.18L160.458,287.802z"/>
</svg>
